<mxfile host="app.diagrams.net" modified="2022-01-18T14:44:20.926Z" agent="5.0 (Windows NT 10.0; Win64; x64) AppleWebKit/537.36 (KHTML, like Gecko) Chrome/97.0.4692.71 Safari/537.36 Edg/97.0.1072.62" etag="povV47GgasiryZUXZEBy" version="16.2.7" type="github">
  <diagram id="gZ6lsgw0BBekwCGHbDpz" name="Page-1">
    <mxGraphModel dx="1422" dy="1930" grid="1" gridSize="10" guides="1" tooltips="1" connect="1" arrows="1" fold="1" page="1" pageScale="1" pageWidth="827" pageHeight="1169" math="0" shadow="0">
      <root>
        <mxCell id="0" />
        <mxCell id="1" parent="0" />
        <mxCell id="mwKtVmHlUfTu6IUNHo6x-1" value="LA32-GCC" style="rounded=1;whiteSpace=wrap;html=1;fillColor=#dae8fc;strokeColor=#6c8ebf;labelBackgroundColor=none;fontColor=#FF0000;" vertex="1" parent="1">
          <mxGeometry x="144" y="-430" width="120" height="60" as="geometry" />
        </mxCell>
        <mxCell id="mwKtVmHlUfTu6IUNHo6x-2" value="LA32-Binutils" style="rounded=1;whiteSpace=wrap;html=1;fillColor=#dae8fc;strokeColor=#6c8ebf;fontColor=#FF0000;" vertex="1" parent="1">
          <mxGeometry x="274" y="-430" width="120" height="60" as="geometry" />
        </mxCell>
        <mxCell id="mwKtVmHlUfTu6IUNHo6x-3" value="LA32-glibc" style="rounded=1;whiteSpace=wrap;html=1;fillColor=#dae8fc;strokeColor=#6c8ebf;fontColor=#FF0000;" vertex="1" parent="1">
          <mxGeometry x="144" y="-500" width="120" height="60" as="geometry" />
        </mxCell>
        <mxCell id="mwKtVmHlUfTu6IUNHo6x-4" value="LA32-qemu" style="rounded=1;whiteSpace=wrap;html=1;fillColor=#ffe6cc;strokeColor=#d79b00;fontColor=#FF0000;" vertex="1" parent="1">
          <mxGeometry x="274" y="-500" width="120" height="60" as="geometry" />
        </mxCell>
        <mxCell id="mwKtVmHlUfTu6IUNHo6x-5" value="LoongArch32-Linux_kernel" style="rounded=0;whiteSpace=wrap;html=1;fillColor=#ffe6cc;strokeColor=#d79b00;fontColor=#FF0000;" vertex="1" parent="1">
          <mxGeometry x="144" y="-610" width="250" height="90" as="geometry" />
        </mxCell>
        <mxCell id="mwKtVmHlUfTu6IUNHo6x-6" value="Toolchain" style="swimlane;horizontal=0;fillColor=#dae8fc;strokeColor=#6c8ebf;fontColor=#FF0000;" vertex="1" parent="1">
          <mxGeometry x="94" y="-510" width="320" height="160" as="geometry" />
        </mxCell>
        <mxCell id="mwKtVmHlUfTu6IUNHo6x-7" value="Object" style="swimlane;horizontal=0;fillColor=#ffe6cc;strokeColor=#d79b00;fontColor=#FF3333;" vertex="1" parent="mwKtVmHlUfTu6IUNHo6x-6">
          <mxGeometry y="-130" width="320" height="130" as="geometry" />
        </mxCell>
        <mxCell id="mwKtVmHlUfTu6IUNHo6x-13" value="" style="endArrow=none;dashed=1;html=1;dashPattern=1 3;strokeWidth=2;rounded=0;fontColor=#FF0000;" edge="1" parent="mwKtVmHlUfTu6IUNHo6x-7">
          <mxGeometry width="50" height="50" relative="1" as="geometry">
            <mxPoint x="46" y="130" as="sourcePoint" />
            <mxPoint x="46" y="20" as="targetPoint" />
          </mxGeometry>
        </mxCell>
        <mxCell id="mwKtVmHlUfTu6IUNHo6x-11" value="" style="endArrow=none;dashed=1;html=1;dashPattern=1 3;strokeWidth=2;rounded=0;fontColor=#FF0000;" edge="1" parent="mwKtVmHlUfTu6IUNHo6x-6">
          <mxGeometry width="50" height="50" relative="1" as="geometry">
            <mxPoint x="46" as="sourcePoint" />
            <mxPoint x="176" as="targetPoint" />
          </mxGeometry>
        </mxCell>
        <mxCell id="mwKtVmHlUfTu6IUNHo6x-12" value="" style="endArrow=none;dashed=1;html=1;dashPattern=1 3;strokeWidth=2;rounded=0;fontColor=#FF0000;" edge="1" parent="mwKtVmHlUfTu6IUNHo6x-6">
          <mxGeometry width="50" height="50" relative="1" as="geometry">
            <mxPoint x="176" y="70" as="sourcePoint" />
            <mxPoint x="176" as="targetPoint" />
          </mxGeometry>
        </mxCell>
        <mxCell id="mwKtVmHlUfTu6IUNHo6x-9" value="" style="endArrow=none;dashed=1;html=1;dashPattern=1 3;strokeWidth=2;rounded=0;fontColor=#FF0000;" edge="1" parent="1">
          <mxGeometry width="50" height="50" relative="1" as="geometry">
            <mxPoint x="400" y="-440" as="sourcePoint" />
            <mxPoint x="400" y="-620" as="targetPoint" />
          </mxGeometry>
        </mxCell>
        <mxCell id="mwKtVmHlUfTu6IUNHo6x-10" value="" style="endArrow=none;dashed=1;html=1;dashPattern=1 3;strokeWidth=2;rounded=0;fontColor=#FF0000;" edge="1" parent="1">
          <mxGeometry width="50" height="50" relative="1" as="geometry">
            <mxPoint x="140" y="-620" as="sourcePoint" />
            <mxPoint x="400" y="-620" as="targetPoint" />
          </mxGeometry>
        </mxCell>
        <mxCell id="mwKtVmHlUfTu6IUNHo6x-14" value="" style="endArrow=none;dashed=1;html=1;dashPattern=1 3;strokeWidth=2;rounded=0;fontColor=#FF0000;" edge="1" parent="1">
          <mxGeometry width="50" height="50" relative="1" as="geometry">
            <mxPoint x="274" y="-440" as="sourcePoint" />
            <mxPoint x="400" y="-440" as="targetPoint" />
          </mxGeometry>
        </mxCell>
      </root>
    </mxGraphModel>
  </diagram>
</mxfile>
